<svg version="1.1" id="Layer_1" xmlns="http://www.w3.org/2000/svg" xmlns:xlink="http://www.w3.org/1999/xlink" x="0px" y="0px"
	 width="100%" viewBox="0 0 160 52" enable-background="new 0 0 160 52" xml:space="preserve">
<path fill="#f5f5f5" opacity="0" stroke="none" 
	d="
M150.000000,53.000000 
	C103.979103,53.000000 57.958210,53.000000 11.680105,52.706787 
	C16.382771,49.590717 22.056622,47.548267 26.162443,43.791908 
	C36.551830,34.286777 46.292896,24.066912 56.179840,14.021324 
	C60.983765,9.140319 65.733170,4.323904 72.763268,2.726939 
	C73.279633,2.609641 73.592514,1.596600 74.000000,1.000000 
	C78.356903,1.000000 82.713799,1.000000 87.489845,1.368106 
	C95.766983,4.455136 101.821884,9.607283 107.438065,15.585519 
	C114.135254,22.714455 121.327156,29.376226 128.114182,36.423885 
	C134.558029,43.115162 141.063934,49.637840 150.000000,53.000000 
z"/>
<path fill="#E3350D" opacity="1.000000" stroke="none" 
	d="
M73.531342,1.000000 
	C73.592514,1.596600 73.279633,2.609641 72.763268,2.726939 
	C65.733170,4.323904 60.983765,9.140319 56.179840,14.021324 
	C46.292896,24.066912 36.551830,34.286777 26.162443,43.791908 
	C22.056622,47.548267 16.382771,49.590717 11.211447,52.706787 
	C10.250000,53.000000 9.500000,53.000000 8.379733,52.531357 
	C8.006310,35.041813 8.003156,18.020906 8.000000,1.000000 
	C29.687561,1.000000 51.375122,1.000000 73.531342,1.000000 
z"/>
<!-- <path fill="#E3350D" opacity="1.000000" stroke="none" 
	d="
M150.399994,53.000000 
	C141.063934,49.637840 134.558029,43.115162 128.114182,36.423885 
	C121.327156,29.376226 114.135254,22.714455 107.438065,15.585519 
	C101.821884,9.607283 95.766983,4.455136 87.954498,1.368106 
	C109.687561,1.000000 131.375122,1.000000 153.532867,1.468655 
	C154.002045,18.958208 154.001022,35.979103 154.000000,53.000000 
	C152.933334,53.000000 151.866653,53.000000 150.399994,53.000000 
z"/> -->
<path fill="#f5f5f5" opacity="0" stroke="none" 
	d="
M7.502095,1.000000 
	C8.003156,18.020906 8.006310,35.041813 8.004733,52.531357 
	C5.684329,53.000000 3.368658,53.000000 1.026493,53.000000 
	C1.026493,35.666668 1.026493,18.333336 1.026493,1.000000 
	C3.034471,1.000000 5.019331,1.000000 7.502095,1.000000 
z"/>
<path fill="#f5f5f5" opacity="0" stroke="none" 
	d="
M154.497910,53.000000 
	C154.001022,35.979103 154.002045,18.958208 154.001526,1.468655 
	C156.315674,1.000000 158.631332,1.000000 160.973511,1.000000 
	C160.973511,18.333330 160.973511,35.666664 160.973511,53.000000 
	C158.965530,53.000000 156.980682,53.000000 154.497910,53.000000 
z"/>
</svg>